<svg xmlns="http://www.w3.org/2000/svg" viewBox="0 0 1200 600">
  <defs>
    <linearGradient id="skyGradient" x1="0%" y1="0%" x2="0%" y2="100%">
      <stop offset="0%" style="stop-color:#87CEEB;stop-opacity:1" />
      <stop offset="100%" style="stop-color:#F0F8FF;stop-opacity:1" />
    </linearGradient>
    <linearGradient id="panelGradient" x1="0%" y1="0%" x2="0%" y2="100%">
      <stop offset="0%" style="stop-color:#1e3a5f;stop-opacity:1" />
      <stop offset="100%" style="stop-color:#0f1e2f;stop-opacity:1" />
    </linearGradient>
  </defs>
  
  <!-- Background sky -->
  <rect fill="url(#skyGradient)" width="1200" height="600"/>
  
  <!-- Solar panels array -->
  <g opacity="0.8">
    <!-- Row 1 -->
    <rect fill="url(#panelGradient)" x="50" y="200" width="120" height="80" rx="5" transform="rotate(-5 110 240)"/>
    <rect fill="url(#panelGradient)" x="200" y="180" width="120" height="80" rx="5" transform="rotate(-3 260 220)"/>
    <rect fill="url(#panelGradient)" x="350" y="220" width="120" height="80" rx="5" transform="rotate(-7 410 260)"/>
    <rect fill="url(#panelGradient)" x="500" y="190" width="120" height="80" rx="5" transform="rotate(-4 560 230)"/>
    <rect fill="url(#panelGradient)" x="650" y="210" width="120" height="80" rx="5" transform="rotate(-6 710 250)"/>
    <rect fill="url(#panelGradient)" x="800" y="185" width="120" height="80" rx="5" transform="rotate(-2 860 225)"/>
    <rect fill="url(#panelGradient)" x="950" y="205" width="120" height="80" rx="5" transform="rotate(-8 1010 245)"/>
    
    <!-- Row 2 -->
    <rect fill="url(#panelGradient)" x="100" y="320" width="120" height="80" rx="5" transform="rotate(-4 160 360)"/>
    <rect fill="url(#panelGradient)" x="250" y="340" width="120" height="80" rx="5" transform="rotate(-6 310 380)"/>
    <rect fill="url(#panelGradient)" x="400" y="310" width="120" height="80" rx="5" transform="rotate(-3 460 350)"/>
    <rect fill="url(#panelGradient)" x="550" y="330" width="120" height="80" rx="5" transform="rotate(-7 610 370)"/>
    <rect fill="url(#panelGradient)" x="700" y="315" width="120" height="80" rx="5" transform="rotate(-5 760 355)"/>
    <rect fill="url(#panelGradient)" x="850" y="335" width="120" height="80" rx="5" transform="rotate(-4 910 375)"/>
    
    <!-- Panel details (grid lines) -->
    <g stroke="#FFD700" stroke-width="1" opacity="0.6">
      <!-- Grid lines on panels -->
      <line x1="80" y1="210" x2="140" y2="210" transform="rotate(-5 110 240)"/>
      <line x1="80" y1="240" x2="140" y2="240" transform="rotate(-5 110 240)"/>
      <line x1="80" y1="270" x2="140" y2="270" transform="rotate(-5 110 240)"/>
      <line x1="110" y1="200" x2="110" y2="280" transform="rotate(-5 110 240)"/>
      
      <line x1="230" y1="190" x2="290" y2="190" transform="rotate(-3 260 220)"/>
      <line x1="230" y1="220" x2="290" y2="220" transform="rotate(-3 260 220)"/>
      <line x1="230" y1="250" x2="290" y2="250" transform="rotate(-3 260 220)"/>
      <line x1="260" y1="180" x2="260" y2="260" transform="rotate(-3 260 220)"/>
    </g>
  </g>
  
  <!-- Sun -->
  <circle cx="1000" cy="100" r="40" fill="#FFD700" opacity="0.9"/>
  <g stroke="#FFD700" stroke-width="3" opacity="0.7">
    <line x1="1000" y1="30" x2="1000" y2="50"/>
    <line x1="1000" y1="150" x2="1000" y2="170"/>
    <line x1="930" y1="100" x2="950" y2="100"/>
    <line x1="1050" y1="100" x2="1070" y2="100"/>
    <line x1="950" y1="50" x2="965" y2="65"/>
    <line x1="1035" y1="135" x2="1050" y2="150"/>
    <line x1="1050" y1="50" x2="1035" y2="65"/>
    <line x1="965" y1="135" x2="950" y2="150"/>
  </g>
  
  <!-- Clouds -->
  <g fill="white" opacity="0.8">
    <ellipse cx="200" cy="80" rx="30" ry="15"/>
    <ellipse cx="220" cy="75" rx="25" ry="12"/>
    <ellipse cx="185" cy="75" rx="20" ry="10"/>
    
    <ellipse cx="600" cy="60" rx="35" ry="18"/>
    <ellipse cx="625" cy="55" rx="28" ry="15"/>
    <ellipse cx="575" cy="55" rx="22" ry="12"/>
  </g>
</svg>
