<!-- Placeholder image for evolution chart -->
<svg width="600" height="400" xmlns="http://www.w3.org/2000/svg">
  <defs>
    <linearGradient id="grad1" x1="0%" y1="0%" x2="100%" y2="0%">
      <stop offset="0%" style="stop-color:#1e3a5f;stop-opacity:1" />
      <stop offset="100%" style="stop-color:#ffd700;stop-opacity:1" />
    </linearGradient>
  </defs>
  
  <!-- Background -->
  <rect width="600" height="400" fill="#f8fafc"/>
  
  <!-- Grid lines -->
  <defs>
    <pattern id="grid" width="60" height="40" patternUnits="userSpaceOnUse">
      <path d="M 60 0 L 0 0 0 40" fill="none" stroke="#e2e8f0" stroke-width="1"/>
    </pattern>
  </defs>
  <rect width="600" height="400" fill="url(#grid)" />
  
  <!-- Y-axis labels -->
  <text x="30" y="50" font-family="Arial" font-size="12" fill="#666">4000</text>
  <text x="30" y="100" font-family="Arial" font-size="12" fill="#666">3500</text>
  <text x="30" y="150" font-family="Arial" font-size="12" fill="#666">3000</text>
  <text x="30" y="200" font-family="Arial" font-size="12" fill="#666">2500</text>
  <text x="30" y="250" font-family="Arial" font-size="12" fill="#666">2000</text>
  <text x="30" y="300" font-family="Arial" font-size="12" fill="#666">1500</text>
  <text x="30" y="350" font-family="Arial" font-size="12" fill="#666">1000</text>
  <text x="40" y="390" font-family="Arial" font-size="12" fill="#666">500</text>
  
  <!-- X-axis labels -->
  <text x="80" y="395" font-family="Arial" font-size="12" fill="#666">2016</text>
  <text x="140" y="395" font-family="Arial" font-size="12" fill="#666">2017</text>
  <text x="200" y="395" font-family="Arial" font-size="12" fill="#666">2018</text>
  <text x="260" y="395" font-family="Arial" font-size="12" fill="#666">2019</text>
  <text x="320" y="395" font-family="Arial" font-size="12" fill="#666">2020</text>
  <text x="380" y="395" font-family="Arial" font-size="12" fill="#666">2021</text>
  <text x="440" y="395" font-family="Arial" font-size="12" fill="#666">2022</text>
  <text x="500" y="395" font-family="Arial" font-size="12" fill="#666">2023</text>
  
  <!-- Data bars -->
  <rect x="70" y="375" width="30" height="5" fill="url(#grad1)"/>   <!-- 2016: 50 -->
  <rect x="130" y="355" width="30" height="25" fill="url(#grad1)"/>  <!-- 2017: 180 -->
  <rect x="190" y="315" width="30" height="65" fill="url(#grad1)"/>  <!-- 2018: 500 -->
  <rect x="250" y="225" width="30" height="155" fill="url(#grad1)"/> <!-- 2019: 1250 -->
  <rect x="310" y="200" width="30" height="180" fill="url(#grad1)"/> <!-- 2020: 1500 -->
  <rect x="370" y="165" width="30" height="215" fill="url(#grad1)"/> <!-- 2021: 2150 -->
  <rect x="430" y="100" width="30" height="280" fill="url(#grad1)"/> <!-- 2022: 3200 -->
  <rect x="490" y="55" width="30" height="325" fill="url(#grad1)"/>  <!-- 2023: 4000 -->
  
  <!-- Title -->
  <text x="300" y="25" font-family="Arial" font-size="16" font-weight="bold" fill="#1e3a5f" text-anchor="middle">
    Évolution de la puissance installée (kWc)
  </text>
</svg>
